<mxfile host="app.diagrams.net" modified="2023-05-21T04:10:51.731Z" agent="Mozilla/5.0 (Macintosh; Intel Mac OS X 10.15; rv:109.0) Gecko/20100101 Firefox/113.0" etag="nMAZn1Y3d8zOSfjVMhLt" version="21.3.2" type="github">
  <diagram name="Page-1" id="-i9typmQ4xRLSnw_Wz7N">
    <mxGraphModel dx="1803" dy="982" grid="1" gridSize="10" guides="1" tooltips="1" connect="1" arrows="1" fold="1" page="1" pageScale="1" pageWidth="850" pageHeight="1100" math="0" shadow="0">
      <root>
        <mxCell id="0" />
        <mxCell id="1" parent="0" />
        <mxCell id="7KjO3c2V070brWg6iY2L-92" style="edgeStyle=orthogonalEdgeStyle;rounded=0;orthogonalLoop=1;jettySize=auto;html=1;exitX=1;exitY=0.25;exitDx=0;exitDy=0;entryX=0.75;entryY=0;entryDx=0;entryDy=0;" edge="1" parent="1" source="Yvi8faQMFgw5ciX71xmG-2" target="Yvi8faQMFgw5ciX71xmG-4">
          <mxGeometry relative="1" as="geometry" />
        </mxCell>
        <mxCell id="Yvi8faQMFgw5ciX71xmG-2" value="&lt;div&gt;Job Controller&lt;/div&gt;" style="swimlane;whiteSpace=wrap;html=1;" parent="1" vertex="1">
          <mxGeometry x="332.5" y="288" width="193" height="90" as="geometry" />
        </mxCell>
        <mxCell id="7KjO3c2V070brWg6iY2L-86" value="&lt;div&gt;#create&lt;/div&gt;&lt;div&gt;#show&lt;/div&gt;&lt;div&gt;#index&lt;br&gt;&lt;/div&gt;" style="text;html=1;align=left;verticalAlign=middle;resizable=0;points=[];autosize=1;strokeColor=none;fillColor=none;" vertex="1" parent="Yvi8faQMFgw5ciX71xmG-2">
          <mxGeometry y="22" width="60" height="60" as="geometry" />
        </mxCell>
        <mxCell id="7KjO3c2V070brWg6iY2L-96" style="edgeStyle=orthogonalEdgeStyle;rounded=0;orthogonalLoop=1;jettySize=auto;html=1;exitX=0.25;exitY=0;exitDx=0;exitDy=0;entryX=-0.007;entryY=0.401;entryDx=0;entryDy=0;entryPerimeter=0;" edge="1" parent="1" source="Yvi8faQMFgw5ciX71xmG-3" target="7KjO3c2V070brWg6iY2L-84">
          <mxGeometry relative="1" as="geometry" />
        </mxCell>
        <mxCell id="Yvi8faQMFgw5ciX71xmG-3" value="View" style="swimlane;whiteSpace=wrap;html=1;" parent="1" vertex="1">
          <mxGeometry x="20" y="470" width="200" height="90" as="geometry" />
        </mxCell>
        <mxCell id="7KjO3c2V070brWg6iY2L-87" value="&lt;div&gt;show.html.erb&lt;/div&gt;&lt;div&gt;index.html.erb&lt;br&gt;&lt;/div&gt;" style="text;html=1;align=left;verticalAlign=middle;resizable=0;points=[];autosize=1;strokeColor=none;fillColor=none;" vertex="1" parent="Yvi8faQMFgw5ciX71xmG-3">
          <mxGeometry x="10" y="30" width="100" height="40" as="geometry" />
        </mxCell>
        <mxCell id="7KjO3c2V070brWg6iY2L-93" style="edgeStyle=orthogonalEdgeStyle;rounded=0;orthogonalLoop=1;jettySize=auto;html=1;exitX=0.25;exitY=0;exitDx=0;exitDy=0;entryX=1;entryY=0.5;entryDx=0;entryDy=0;" edge="1" parent="1" source="Yvi8faQMFgw5ciX71xmG-4" target="Yvi8faQMFgw5ciX71xmG-2">
          <mxGeometry relative="1" as="geometry" />
        </mxCell>
        <mxCell id="7KjO3c2V070brWg6iY2L-94" style="edgeStyle=orthogonalEdgeStyle;rounded=0;orthogonalLoop=1;jettySize=auto;html=1;exitX=0.5;exitY=1;exitDx=0;exitDy=0;entryX=0.5;entryY=0;entryDx=0;entryDy=0;" edge="1" parent="1" source="Yvi8faQMFgw5ciX71xmG-4" target="7KjO3c2V070brWg6iY2L-44">
          <mxGeometry relative="1" as="geometry" />
        </mxCell>
        <mxCell id="Yvi8faQMFgw5ciX71xmG-4" value="Model" style="swimlane;whiteSpace=wrap;html=1;" parent="1" vertex="1">
          <mxGeometry x="630" y="470" width="200" height="90" as="geometry" />
        </mxCell>
        <mxCell id="7KjO3c2V070brWg6iY2L-80" value="Job" style="text;html=1;align=center;verticalAlign=middle;resizable=0;points=[];autosize=1;strokeColor=none;fillColor=none;" vertex="1" parent="Yvi8faQMFgw5ciX71xmG-4">
          <mxGeometry y="20" width="40" height="30" as="geometry" />
        </mxCell>
        <mxCell id="7KjO3c2V070brWg6iY2L-44" value="Jobs" style="shape=table;startSize=30;container=1;collapsible=0;childLayout=tableLayout;fontSize=12;" vertex="1" parent="1">
          <mxGeometry x="20" y="670" width="810" height="110" as="geometry" />
        </mxCell>
        <mxCell id="7KjO3c2V070brWg6iY2L-45" value="" style="shape=tableRow;horizontal=0;startSize=0;swimlaneHead=0;swimlaneBody=0;strokeColor=inherit;top=0;left=0;bottom=0;right=0;collapsible=0;dropTarget=0;fillColor=none;points=[[0,0.5],[1,0.5]];portConstraint=eastwest;fontSize=7;" vertex="1" parent="7KjO3c2V070brWg6iY2L-44">
          <mxGeometry y="30" width="810" height="20" as="geometry" />
        </mxCell>
        <mxCell id="7KjO3c2V070brWg6iY2L-46" value="url" style="shape=partialRectangle;html=1;whiteSpace=wrap;connectable=0;strokeColor=inherit;overflow=hidden;fillColor=none;top=0;left=0;bottom=0;right=0;pointerEvents=1;fontSize=7;" vertex="1" parent="7KjO3c2V070brWg6iY2L-45">
          <mxGeometry width="81" height="20" as="geometry">
            <mxRectangle width="81" height="20" as="alternateBounds" />
          </mxGeometry>
        </mxCell>
        <mxCell id="7KjO3c2V070brWg6iY2L-47" value="employer_name" style="shape=partialRectangle;html=1;whiteSpace=wrap;connectable=0;strokeColor=inherit;overflow=hidden;fillColor=none;top=0;left=0;bottom=0;right=0;pointerEvents=1;fontSize=7;" vertex="1" parent="7KjO3c2V070brWg6iY2L-45">
          <mxGeometry x="81" width="81" height="20" as="geometry">
            <mxRectangle width="81" height="20" as="alternateBounds" />
          </mxGeometry>
        </mxCell>
        <mxCell id="7KjO3c2V070brWg6iY2L-48" value="employer_description" style="shape=partialRectangle;html=1;whiteSpace=wrap;connectable=0;strokeColor=inherit;overflow=hidden;fillColor=none;top=0;left=0;bottom=0;right=0;pointerEvents=1;fontSize=7;" vertex="1" parent="7KjO3c2V070brWg6iY2L-45">
          <mxGeometry x="162" width="81" height="20" as="geometry">
            <mxRectangle width="81" height="20" as="alternateBounds" />
          </mxGeometry>
        </mxCell>
        <mxCell id="7KjO3c2V070brWg6iY2L-49" value="job_title" style="shape=partialRectangle;html=1;whiteSpace=wrap;connectable=0;strokeColor=inherit;overflow=hidden;fillColor=none;top=0;left=0;bottom=0;right=0;pointerEvents=1;fontSize=7;" vertex="1" parent="7KjO3c2V070brWg6iY2L-45">
          <mxGeometry x="243" width="81" height="20" as="geometry">
            <mxRectangle width="81" height="20" as="alternateBounds" />
          </mxGeometry>
        </mxCell>
        <mxCell id="7KjO3c2V070brWg6iY2L-50" value="job_description" style="shape=partialRectangle;html=1;whiteSpace=wrap;connectable=0;strokeColor=inherit;overflow=hidden;fillColor=none;top=0;left=0;bottom=0;right=0;pointerEvents=1;fontSize=7;" vertex="1" parent="7KjO3c2V070brWg6iY2L-45">
          <mxGeometry x="324" width="81" height="20" as="geometry">
            <mxRectangle width="81" height="20" as="alternateBounds" />
          </mxGeometry>
        </mxCell>
        <mxCell id="7KjO3c2V070brWg6iY2L-51" value="year_of_experience" style="shape=partialRectangle;html=1;whiteSpace=wrap;connectable=0;strokeColor=inherit;overflow=hidden;fillColor=none;top=0;left=0;bottom=0;right=0;pointerEvents=1;fontSize=7;" vertex="1" parent="7KjO3c2V070brWg6iY2L-45">
          <mxGeometry x="405" width="81" height="20" as="geometry">
            <mxRectangle width="81" height="20" as="alternateBounds" />
          </mxGeometry>
        </mxCell>
        <mxCell id="7KjO3c2V070brWg6iY2L-52" value="education_requirement" style="shape=partialRectangle;html=1;whiteSpace=wrap;connectable=0;strokeColor=inherit;overflow=hidden;fillColor=none;top=0;left=0;bottom=0;right=0;pointerEvents=1;fontSize=7;" vertex="1" parent="7KjO3c2V070brWg6iY2L-45">
          <mxGeometry x="486" width="81" height="20" as="geometry">
            <mxRectangle width="81" height="20" as="alternateBounds" />
          </mxGeometry>
        </mxCell>
        <mxCell id="7KjO3c2V070brWg6iY2L-53" value="industry" style="shape=partialRectangle;html=1;whiteSpace=wrap;connectable=0;strokeColor=inherit;overflow=hidden;fillColor=none;top=0;left=0;bottom=0;right=0;pointerEvents=1;fontSize=7;" vertex="1" parent="7KjO3c2V070brWg6iY2L-45">
          <mxGeometry x="567" width="81" height="20" as="geometry">
            <mxRectangle width="81" height="20" as="alternateBounds" />
          </mxGeometry>
        </mxCell>
        <mxCell id="7KjO3c2V070brWg6iY2L-54" value="base_salary" style="shape=partialRectangle;html=1;whiteSpace=wrap;connectable=0;strokeColor=inherit;overflow=hidden;fillColor=none;top=0;left=0;bottom=0;right=0;pointerEvents=1;fontSize=7;" vertex="1" parent="7KjO3c2V070brWg6iY2L-45">
          <mxGeometry x="648" width="81" height="20" as="geometry">
            <mxRectangle width="81" height="20" as="alternateBounds" />
          </mxGeometry>
        </mxCell>
        <mxCell id="7KjO3c2V070brWg6iY2L-55" value="employment_type_id" style="shape=partialRectangle;html=1;whiteSpace=wrap;connectable=0;strokeColor=inherit;overflow=hidden;fillColor=none;top=0;left=0;bottom=0;right=0;pointerEvents=1;fontSize=7;" vertex="1" parent="7KjO3c2V070brWg6iY2L-45">
          <mxGeometry x="729" width="81" height="20" as="geometry">
            <mxRectangle width="81" height="20" as="alternateBounds" />
          </mxGeometry>
        </mxCell>
        <mxCell id="7KjO3c2V070brWg6iY2L-56" value="" style="shape=tableRow;horizontal=0;startSize=0;swimlaneHead=0;swimlaneBody=0;strokeColor=inherit;top=0;left=0;bottom=0;right=0;collapsible=0;dropTarget=0;fillColor=none;points=[[0,0.5],[1,0.5]];portConstraint=eastwest;fontSize=7;" vertex="1" parent="7KjO3c2V070brWg6iY2L-44">
          <mxGeometry y="50" width="810" height="20" as="geometry" />
        </mxCell>
        <mxCell id="7KjO3c2V070brWg6iY2L-57" value="string" style="shape=partialRectangle;html=1;whiteSpace=wrap;connectable=0;strokeColor=inherit;overflow=hidden;fillColor=none;top=0;left=0;bottom=0;right=0;pointerEvents=1;fontSize=7;" vertex="1" parent="7KjO3c2V070brWg6iY2L-56">
          <mxGeometry width="81" height="20" as="geometry">
            <mxRectangle width="81" height="20" as="alternateBounds" />
          </mxGeometry>
        </mxCell>
        <mxCell id="7KjO3c2V070brWg6iY2L-58" value="string" style="shape=partialRectangle;html=1;whiteSpace=wrap;connectable=0;strokeColor=inherit;overflow=hidden;fillColor=none;top=0;left=0;bottom=0;right=0;pointerEvents=1;fontSize=7;" vertex="1" parent="7KjO3c2V070brWg6iY2L-56">
          <mxGeometry x="81" width="81" height="20" as="geometry">
            <mxRectangle width="81" height="20" as="alternateBounds" />
          </mxGeometry>
        </mxCell>
        <mxCell id="7KjO3c2V070brWg6iY2L-59" value="string" style="shape=partialRectangle;html=1;whiteSpace=wrap;connectable=0;strokeColor=inherit;overflow=hidden;fillColor=none;top=0;left=0;bottom=0;right=0;pointerEvents=1;fontSize=7;" vertex="1" parent="7KjO3c2V070brWg6iY2L-56">
          <mxGeometry x="162" width="81" height="20" as="geometry">
            <mxRectangle width="81" height="20" as="alternateBounds" />
          </mxGeometry>
        </mxCell>
        <mxCell id="7KjO3c2V070brWg6iY2L-60" value="string" style="shape=partialRectangle;html=1;whiteSpace=wrap;connectable=0;strokeColor=inherit;overflow=hidden;fillColor=none;top=0;left=0;bottom=0;right=0;pointerEvents=1;fontSize=7;" vertex="1" parent="7KjO3c2V070brWg6iY2L-56">
          <mxGeometry x="243" width="81" height="20" as="geometry">
            <mxRectangle width="81" height="20" as="alternateBounds" />
          </mxGeometry>
        </mxCell>
        <mxCell id="7KjO3c2V070brWg6iY2L-61" value="string" style="shape=partialRectangle;html=1;whiteSpace=wrap;connectable=0;strokeColor=inherit;overflow=hidden;fillColor=none;top=0;left=0;bottom=0;right=0;pointerEvents=1;fontSize=7;" vertex="1" parent="7KjO3c2V070brWg6iY2L-56">
          <mxGeometry x="324" width="81" height="20" as="geometry">
            <mxRectangle width="81" height="20" as="alternateBounds" />
          </mxGeometry>
        </mxCell>
        <mxCell id="7KjO3c2V070brWg6iY2L-62" value="integer" style="shape=partialRectangle;html=1;whiteSpace=wrap;connectable=0;strokeColor=inherit;overflow=hidden;fillColor=none;top=0;left=0;bottom=0;right=0;pointerEvents=1;fontSize=7;" vertex="1" parent="7KjO3c2V070brWg6iY2L-56">
          <mxGeometry x="405" width="81" height="20" as="geometry">
            <mxRectangle width="81" height="20" as="alternateBounds" />
          </mxGeometry>
        </mxCell>
        <mxCell id="7KjO3c2V070brWg6iY2L-63" value="string" style="shape=partialRectangle;html=1;whiteSpace=wrap;connectable=0;strokeColor=inherit;overflow=hidden;fillColor=none;top=0;left=0;bottom=0;right=0;pointerEvents=1;fontSize=7;" vertex="1" parent="7KjO3c2V070brWg6iY2L-56">
          <mxGeometry x="486" width="81" height="20" as="geometry">
            <mxRectangle width="81" height="20" as="alternateBounds" />
          </mxGeometry>
        </mxCell>
        <mxCell id="7KjO3c2V070brWg6iY2L-64" value="string" style="shape=partialRectangle;html=1;whiteSpace=wrap;connectable=0;strokeColor=inherit;overflow=hidden;fillColor=none;top=0;left=0;bottom=0;right=0;pointerEvents=1;fontSize=7;" vertex="1" parent="7KjO3c2V070brWg6iY2L-56">
          <mxGeometry x="567" width="81" height="20" as="geometry">
            <mxRectangle width="81" height="20" as="alternateBounds" />
          </mxGeometry>
        </mxCell>
        <mxCell id="7KjO3c2V070brWg6iY2L-65" value="integer" style="shape=partialRectangle;html=1;whiteSpace=wrap;connectable=0;strokeColor=inherit;overflow=hidden;fillColor=none;top=0;left=0;bottom=0;right=0;pointerEvents=1;fontSize=7;" vertex="1" parent="7KjO3c2V070brWg6iY2L-56">
          <mxGeometry x="648" width="81" height="20" as="geometry">
            <mxRectangle width="81" height="20" as="alternateBounds" />
          </mxGeometry>
        </mxCell>
        <mxCell id="7KjO3c2V070brWg6iY2L-66" value="integer" style="shape=partialRectangle;html=1;whiteSpace=wrap;connectable=0;strokeColor=inherit;overflow=hidden;fillColor=none;top=0;left=0;bottom=0;right=0;pointerEvents=1;fontSize=7;" vertex="1" parent="7KjO3c2V070brWg6iY2L-56">
          <mxGeometry x="729" width="81" height="20" as="geometry">
            <mxRectangle width="81" height="20" as="alternateBounds" />
          </mxGeometry>
        </mxCell>
        <mxCell id="7KjO3c2V070brWg6iY2L-67" value="" style="shape=tableRow;horizontal=0;startSize=0;swimlaneHead=0;swimlaneBody=0;strokeColor=inherit;top=0;left=0;bottom=0;right=0;collapsible=0;dropTarget=0;fillColor=none;points=[[0,0.5],[1,0.5]];portConstraint=eastwest;fontSize=7;" vertex="1" parent="7KjO3c2V070brWg6iY2L-44">
          <mxGeometry y="70" width="810" height="40" as="geometry" />
        </mxCell>
        <mxCell id="7KjO3c2V070brWg6iY2L-68" value="" style="shape=partialRectangle;html=1;whiteSpace=wrap;connectable=0;strokeColor=inherit;overflow=hidden;fillColor=none;top=0;left=0;bottom=0;right=0;pointerEvents=1;fontSize=7;" vertex="1" parent="7KjO3c2V070brWg6iY2L-67">
          <mxGeometry width="81" height="40" as="geometry">
            <mxRectangle width="81" height="40" as="alternateBounds" />
          </mxGeometry>
        </mxCell>
        <mxCell id="7KjO3c2V070brWg6iY2L-69" value="" style="shape=partialRectangle;html=1;whiteSpace=wrap;connectable=0;strokeColor=inherit;overflow=hidden;fillColor=none;top=0;left=0;bottom=0;right=0;pointerEvents=1;fontSize=7;" vertex="1" parent="7KjO3c2V070brWg6iY2L-67">
          <mxGeometry x="81" width="81" height="40" as="geometry">
            <mxRectangle width="81" height="40" as="alternateBounds" />
          </mxGeometry>
        </mxCell>
        <mxCell id="7KjO3c2V070brWg6iY2L-70" value="" style="shape=partialRectangle;html=1;whiteSpace=wrap;connectable=0;strokeColor=inherit;overflow=hidden;fillColor=none;top=0;left=0;bottom=0;right=0;pointerEvents=1;fontSize=7;" vertex="1" parent="7KjO3c2V070brWg6iY2L-67">
          <mxGeometry x="162" width="81" height="40" as="geometry">
            <mxRectangle width="81" height="40" as="alternateBounds" />
          </mxGeometry>
        </mxCell>
        <mxCell id="7KjO3c2V070brWg6iY2L-71" value="" style="shape=partialRectangle;html=1;whiteSpace=wrap;connectable=0;strokeColor=inherit;overflow=hidden;fillColor=none;top=0;left=0;bottom=0;right=0;pointerEvents=1;fontSize=7;" vertex="1" parent="7KjO3c2V070brWg6iY2L-67">
          <mxGeometry x="243" width="81" height="40" as="geometry">
            <mxRectangle width="81" height="40" as="alternateBounds" />
          </mxGeometry>
        </mxCell>
        <mxCell id="7KjO3c2V070brWg6iY2L-72" value="" style="shape=partialRectangle;html=1;whiteSpace=wrap;connectable=0;strokeColor=inherit;overflow=hidden;fillColor=none;top=0;left=0;bottom=0;right=0;pointerEvents=1;fontSize=7;" vertex="1" parent="7KjO3c2V070brWg6iY2L-67">
          <mxGeometry x="324" width="81" height="40" as="geometry">
            <mxRectangle width="81" height="40" as="alternateBounds" />
          </mxGeometry>
        </mxCell>
        <mxCell id="7KjO3c2V070brWg6iY2L-73" value="" style="shape=partialRectangle;html=1;whiteSpace=wrap;connectable=0;strokeColor=inherit;overflow=hidden;fillColor=none;top=0;left=0;bottom=0;right=0;pointerEvents=1;fontSize=7;" vertex="1" parent="7KjO3c2V070brWg6iY2L-67">
          <mxGeometry x="405" width="81" height="40" as="geometry">
            <mxRectangle width="81" height="40" as="alternateBounds" />
          </mxGeometry>
        </mxCell>
        <mxCell id="7KjO3c2V070brWg6iY2L-74" value="" style="shape=partialRectangle;html=1;whiteSpace=wrap;connectable=0;strokeColor=inherit;overflow=hidden;fillColor=none;top=0;left=0;bottom=0;right=0;pointerEvents=1;fontSize=7;" vertex="1" parent="7KjO3c2V070brWg6iY2L-67">
          <mxGeometry x="486" width="81" height="40" as="geometry">
            <mxRectangle width="81" height="40" as="alternateBounds" />
          </mxGeometry>
        </mxCell>
        <mxCell id="7KjO3c2V070brWg6iY2L-75" value="" style="shape=partialRectangle;html=1;whiteSpace=wrap;connectable=0;strokeColor=inherit;overflow=hidden;fillColor=none;top=0;left=0;bottom=0;right=0;pointerEvents=1;fontSize=7;" vertex="1" parent="7KjO3c2V070brWg6iY2L-67">
          <mxGeometry x="567" width="81" height="40" as="geometry">
            <mxRectangle width="81" height="40" as="alternateBounds" />
          </mxGeometry>
        </mxCell>
        <mxCell id="7KjO3c2V070brWg6iY2L-76" value="" style="shape=partialRectangle;html=1;whiteSpace=wrap;connectable=0;strokeColor=inherit;overflow=hidden;fillColor=none;top=0;left=0;bottom=0;right=0;pointerEvents=1;fontSize=7;" vertex="1" parent="7KjO3c2V070brWg6iY2L-67">
          <mxGeometry x="648" width="81" height="40" as="geometry">
            <mxRectangle width="81" height="40" as="alternateBounds" />
          </mxGeometry>
        </mxCell>
        <mxCell id="7KjO3c2V070brWg6iY2L-77" value="" style="shape=partialRectangle;html=1;whiteSpace=wrap;connectable=0;strokeColor=inherit;overflow=hidden;fillColor=none;top=0;left=0;bottom=0;right=0;pointerEvents=1;fontSize=7;" vertex="1" parent="7KjO3c2V070brWg6iY2L-67">
          <mxGeometry x="729" width="81" height="40" as="geometry">
            <mxRectangle width="81" height="40" as="alternateBounds" />
          </mxGeometry>
        </mxCell>
        <mxCell id="7KjO3c2V070brWg6iY2L-89" style="edgeStyle=orthogonalEdgeStyle;rounded=0;orthogonalLoop=1;jettySize=auto;html=1;entryX=0.5;entryY=0;entryDx=0;entryDy=0;" edge="1" parent="1" source="7KjO3c2V070brWg6iY2L-83" target="Yvi8faQMFgw5ciX71xmG-2">
          <mxGeometry relative="1" as="geometry" />
        </mxCell>
        <mxCell id="7KjO3c2V070brWg6iY2L-83" value="Routes" style="swimlane;whiteSpace=wrap;html=1;" vertex="1" parent="1">
          <mxGeometry x="332.5" y="160" width="193" height="90" as="geometry" />
        </mxCell>
        <mxCell id="7KjO3c2V070brWg6iY2L-84" value="&lt;div&gt;post &#39;job#create&#39;&lt;/div&gt;&lt;div&gt;get &#39;job#show&lt;/div&gt;&lt;div&gt;get &#39;job#index&#39;&lt;br&gt;&lt;/div&gt;" style="text;html=1;align=left;verticalAlign=middle;resizable=0;points=[];autosize=1;strokeColor=none;fillColor=none;" vertex="1" parent="7KjO3c2V070brWg6iY2L-83">
          <mxGeometry y="20" width="110" height="60" as="geometry" />
        </mxCell>
        <mxCell id="7KjO3c2V070brWg6iY2L-88" value="&lt;div&gt;- when user create the job post, route file will receive the instruction, which will trigger the create method in the Job Controller, which should insert the job &lt;br&gt;&lt;/div&gt;&lt;div&gt;record to the Jobs table via Job Model. then controller can redirect to some view.&lt;/div&gt;&lt;div&gt;&lt;br&gt;&lt;/div&gt;&lt;div&gt;- when user request to see specific job id, route file will receive the instruction, which will trigger the show method in the Job Controller. then controller will&lt;/div&gt;&lt;div&gt;request the specific job with ID to the model, model will retrieve from the table and return back to controller, then controller will send the information to the &lt;br&gt;&lt;/div&gt;&lt;div&gt;view file show.html.erb to display back to user.&lt;/div&gt;&lt;div&gt;&lt;br&gt;&lt;/div&gt;&lt;div&gt;&lt;div&gt;- when user request to see all jobs, route file will receive the instruction, which will trigger the index method in the Job Controller. then controller will&lt;/div&gt;&lt;div&gt;request all the jobs to model, model will retrieve from the table and return back to controller, then controller will send the information to the view&lt;/div&gt;&lt;div&gt;file index.html.erb to display back to user as list. &lt;br&gt;&lt;/div&gt;&lt;/div&gt;&lt;div&gt;&lt;br&gt;&lt;/div&gt;&lt;div&gt;&lt;br&gt;&lt;/div&gt;" style="text;html=1;align=left;verticalAlign=middle;resizable=0;points=[];autosize=1;strokeColor=none;fillColor=none;" vertex="1" parent="1">
          <mxGeometry x="5" y="820" width="840" height="190" as="geometry" />
        </mxCell>
        <mxCell id="7KjO3c2V070brWg6iY2L-95" style="edgeStyle=orthogonalEdgeStyle;rounded=0;orthogonalLoop=1;jettySize=auto;html=1;entryX=0.702;entryY=-0.017;entryDx=0;entryDy=0;entryPerimeter=0;" edge="1" parent="1" source="7KjO3c2V070brWg6iY2L-86" target="Yvi8faQMFgw5ciX71xmG-3">
          <mxGeometry relative="1" as="geometry" />
        </mxCell>
      </root>
    </mxGraphModel>
  </diagram>
</mxfile>
